# Blender v2.93.0 OBJ File: 'firstPawn.blend'
# www.blender.org
mtllib firstPawn.mtl
o Cylinder.002_Cylinder.003
v 1.095167 0.752217 -0.474354
v 1.095167 0.967504 -0.474354
v 1.401144 0.752217 -0.374937
v 1.401144 0.967504 -0.374937
v 1.590248 0.752217 -0.114657
v 1.590248 0.967504 -0.114657
v 1.590248 0.752217 0.207066
v 1.590248 0.967504 0.207066
v 1.401144 0.752217 0.467345
v 1.401144 0.967504 0.467345
v 1.095167 0.752217 0.566763
v 1.095167 0.967504 0.566763
v 0.789190 0.752217 0.467345
v 0.789190 0.967504 0.467345
v 0.600086 0.752217 0.207066
v 0.600086 0.967504 0.207066
v 0.600086 0.752217 -0.114657
v 0.600086 0.967504 -0.114657
v 0.789190 0.752217 -0.374937
v 0.789190 0.967504 -0.374937
v 1.352124 0.990656 -0.307466
v 1.095167 0.990656 -0.390956
v 1.510932 0.990656 -0.088886
v 1.510932 0.990656 0.181295
v 1.352124 0.990656 0.399875
v 1.095167 0.990656 0.483365
v 0.838210 0.990656 0.399875
v 0.679402 0.990656 0.181295
v 0.679402 0.990656 -0.088886
v 0.838210 0.990656 -0.307466
v 1.323535 1.248455 -0.268118
v 1.095167 1.248455 -0.342319
v 1.464675 1.248455 -0.073856
v 1.464675 1.248455 0.166265
v 1.323535 1.248455 0.360526
v 1.095167 1.248455 0.434728
v 0.866799 1.248455 0.360526
v 0.725659 1.248455 0.166265
v 0.725659 1.248455 -0.073856
v 0.866799 1.248455 -0.268118
v 1.341696 1.294676 -0.293113
v 1.095167 1.294676 -0.373215
v 1.494058 1.294676 -0.083403
v 1.494058 1.294676 0.175812
v 1.341696 1.294676 0.385522
v 1.095167 1.294676 0.465624
v 0.848639 1.294676 0.385522
v 0.696276 1.294676 0.175812
v 0.696276 1.294676 -0.083403
v 0.848639 1.294676 -0.293113
v 1.341696 1.345289 -0.293113
v 1.095167 1.345289 -0.373215
v 1.494058 1.345289 -0.083403
v 1.494058 1.345289 0.175812
v 1.341696 1.345289 0.385522
v 1.095167 1.345289 0.465624
v 0.848639 1.345289 0.385522
v 0.696276 1.345289 0.175812
v 0.696276 1.345289 -0.083403
v 0.848639 1.345289 -0.293113
v 1.314312 1.386960 -0.255423
v 1.095167 1.386960 -0.326628
v 1.449752 1.386960 -0.069007
v 1.449752 1.386960 0.161416
v 1.314312 1.386960 0.347832
v 1.095167 1.386960 0.419037
v 0.876022 1.386960 0.347832
v 0.740582 1.386960 0.161416
v 0.740582 1.386960 -0.069007
v 0.876022 1.386960 -0.255423
v 1.219632 1.535629 -0.125106
v 1.095167 1.535629 -0.165547
v 1.296555 1.535629 -0.019230
v 1.296555 1.535629 0.111639
v 1.219632 1.535629 0.217515
v 1.095167 1.535629 0.257956
v 0.970703 1.535629 0.217515
v 0.893779 1.535629 0.111639
v 0.893779 1.535629 -0.019231
v 0.970703 1.535629 -0.125106
v 1.217873 1.729575 -0.122687
v 1.095167 1.729575 -0.162556
v 1.293710 1.729575 -0.018306
v 1.293710 1.729575 0.110715
v 1.217873 1.729575 0.215095
v 1.095167 1.729575 0.254965
v 0.972461 1.729575 0.215095
v 0.896624 1.729575 0.110715
v 0.896624 1.729575 -0.018306
v 0.972461 1.729575 -0.122686
v 1.270755 1.829374 -0.195471
v 1.095167 1.829374 -0.252523
v 1.379274 1.829374 -0.046107
v 1.379274 1.829374 0.138516
v 1.270755 1.829374 0.287880
v 1.095167 1.829374 0.344932
v 0.919579 1.829374 0.287880
v 0.811060 1.829374 0.138516
v 0.811060 1.829374 -0.046108
v 0.919579 1.829374 -0.195471
v 1.270755 1.863826 -0.195471
v 1.095167 1.863826 -0.252523
v 1.379274 1.863826 -0.046107
v 1.379274 1.863826 0.138516
v 1.270755 1.863826 0.287880
v 1.095167 1.863826 0.344932
v 0.919579 1.863826 0.287880
v 0.811060 1.863826 0.138516
v 0.811060 1.863826 -0.046108
v 0.919579 1.863826 -0.195471
v 1.189081 1.943830 -0.083057
v 1.095167 1.943830 -0.113572
v 1.247123 1.943830 -0.003169
v 1.247123 1.943830 0.095578
v 1.189081 1.943830 0.175466
v 1.095167 1.943830 0.205981
v 1.001253 1.943830 0.175466
v 0.943211 1.943830 0.095578
v 0.943211 1.943830 -0.003169
v 1.001253 1.943830 -0.083057
v 1.175196 2.144133 -0.063947
v 1.095167 2.144133 -0.089950
v 1.224657 2.144133 0.004130
v 1.224657 2.144133 0.088278
v 1.175196 2.144133 0.156355
v 1.095167 2.144133 0.182359
v 1.015138 2.144133 0.156355
v 0.965677 2.144133 0.088278
v 0.965677 2.144133 0.004130
v 1.015138 2.144133 -0.063947
v 1.336927 2.204489 -0.286550
v 1.095167 2.204489 -0.365102
v 1.486343 2.204489 -0.080896
v 1.486343 2.204489 0.173305
v 1.336927 2.204489 0.378958
v 1.095167 2.204489 0.457511
v 0.853407 2.204489 0.378958
v 0.703991 2.204489 0.173305
v 0.703991 2.204489 -0.080896
v 0.853407 2.204489 -0.286550
v 1.336927 2.270476 -0.286550
v 1.095167 2.270476 -0.365102
v 1.486343 2.270476 -0.080896
v 1.486343 2.270476 0.173305
v 1.336927 2.270476 0.378958
v 1.095167 2.270476 0.457511
v 0.853407 2.270476 0.378958
v 0.703991 2.270476 0.173305
v 0.703991 2.270476 -0.080896
v 0.853407 2.270476 -0.286550
v 1.336211 2.269691 -0.285564
v 1.095167 2.269691 -0.363884
v 1.485185 2.269691 -0.080520
v 1.485185 2.269691 0.172929
v 1.336211 2.269691 0.377973
v 1.095167 2.269691 0.456293
v 0.854123 2.269691 0.377973
v 0.705149 2.269691 0.172929
v 0.705149 2.269691 -0.080520
v 0.854123 2.269691 -0.285564
v 1.169405 2.413152 -0.055975
v 1.095167 2.413152 -0.080096
v 1.215286 2.413152 0.007175
v 1.215286 2.413152 0.085233
v 1.169405 2.413152 0.148384
v 1.095167 2.413152 0.172505
v 1.020929 2.413152 0.148384
v 0.975048 2.413152 0.085233
v 0.975048 2.413152 0.007175
v 1.020929 2.413152 -0.055975
v 1.152657 2.479207 -0.032924
v 1.095167 2.479207 -0.051604
v 1.188188 2.479207 0.015980
v 1.188188 2.479207 0.076429
v 1.152657 2.479207 0.125333
v 1.095167 2.479207 0.144012
v 1.037677 2.479207 0.125333
v 1.002146 2.479207 0.076429
v 1.002146 2.479207 0.015980
v 1.037677 2.479207 -0.032924
v 1.114576 2.537122 0.019490
v 1.095167 2.537122 0.013184
v 1.126571 2.537122 0.036000
v 1.126571 2.537122 0.056408
v 1.114576 2.537122 0.072919
v 1.095167 2.537122 0.079225
v 1.075758 2.537122 0.072919
v 1.063763 2.537122 0.056408
v 1.063763 2.537122 0.036000
v 1.075758 2.537122 0.019490
vt 1.000000 0.500000
vt 1.000000 1.000000
vt 0.900000 1.000000
vt 0.900000 0.500000
vt 0.800000 1.000000
vt 0.800000 0.500000
vt 0.700000 1.000000
vt 0.700000 0.500000
vt 0.600000 1.000000
vt 0.600000 0.500000
vt 0.500000 1.000000
vt 0.500000 0.500000
vt 0.400000 1.000000
vt 0.400000 0.500000
vt 0.300000 1.000000
vt 0.300000 0.500000
vt 0.200000 1.000000
vt 0.200000 0.500000
vt 0.400000 1.000000
vt 0.300000 1.000000
vt 0.100000 1.000000
vt 0.100000 0.500000
vt -0.000000 1.000000
vt -0.000000 0.500000
vt 0.750000 0.490000
vt 0.891068 0.444164
vt 0.978254 0.324164
vt 0.978254 0.175836
vt 0.891068 0.055836
vt 0.750000 0.010000
vt 0.608932 0.055836
vt 0.521746 0.175836
vt 0.521746 0.324164
vt 0.608932 0.444164
vt 0.200000 1.000000
vt 0.300000 1.000000
vt 0.200000 1.000000
vt 0.500000 1.000000
vt 0.600000 1.000000
vt 0.700000 1.000000
vt 1.000000 1.000000
vt 0.900000 1.000000
vt 0.800000 1.000000
vt 0.100000 1.000000
vt -0.000000 1.000000
vt 0.500000 1.000000
vt 0.600000 1.000000
vt 0.600000 1.000000
vt 0.500000 1.000000
vt 0.900000 1.000000
vt 0.800000 1.000000
vt 0.100000 1.000000
vt 0.400000 1.000000
vt 0.700000 1.000000
vt -0.000000 1.000000
vt 1.000000 1.000000
vt 0.800000 1.000000
vt 0.900000 1.000000
vt 0.900000 1.000000
vt 0.800000 1.000000
vt 0.200000 1.000000
vt 0.100000 1.000000
vt 0.400000 1.000000
vt 0.700000 1.000000
vt -0.000000 1.000000
vt 0.300000 1.000000
vt 1.000000 1.000000
vt 0.400000 1.000000
vt 0.500000 1.000000
vt 0.500000 1.000000
vt 0.400000 1.000000
vt 0.200000 1.000000
vt 0.100000 1.000000
vt 0.700000 1.000000
vt -0.000000 1.000000
vt 0.300000 1.000000
vt 0.600000 1.000000
vt 1.000000 1.000000
vt 0.700000 1.000000
vt 0.800000 1.000000
vt 0.800000 1.000000
vt 0.700000 1.000000
vt 0.100000 1.000000
vt -0.000000 1.000000
vt 0.300000 1.000000
vt 0.600000 1.000000
vt 1.000000 1.000000
vt 0.900000 1.000000
vt 0.200000 1.000000
vt -0.000000 1.000000
vt 0.100000 1.000000
vt 0.100000 1.000000
vt -0.000000 1.000000
vt 0.400000 1.000000
vt 0.300000 1.000000
vt 0.600000 1.000000
vt 1.000000 1.000000
vt 0.900000 1.000000
vt 0.200000 1.000000
vt 0.500000 1.000000
vt 0.300000 1.000000
vt 0.400000 1.000000
vt 0.400000 1.000000
vt 0.300000 1.000000
vt 0.700000 1.000000
vt 0.600000 1.000000
vt 1.000000 1.000000
vt 0.900000 1.000000
vt 0.200000 1.000000
vt 0.500000 1.000000
vt 0.800000 1.000000
vt 0.600000 1.000000
vt 0.700000 1.000000
vt 0.700000 1.000000
vt 0.600000 1.000000
vt 1.000000 1.000000
vt 0.900000 1.000000
vt 0.200000 1.000000
vt 0.500000 1.000000
vt 0.800000 1.000000
vt 0.100000 1.000000
vt -0.000000 1.000000
vt 0.900000 1.000000
vt 1.000000 1.000000
vt 1.000000 1.000000
vt 0.900000 1.000000
vt 0.300000 1.000000
vt 0.200000 1.000000
vt 0.500000 1.000000
vt 0.800000 1.000000
vt 0.100000 1.000000
vt 0.400000 1.000000
vt -0.000000 1.000000
vt 0.500000 1.000000
vt 0.600000 1.000000
vt 0.600000 1.000000
vt 0.500000 1.000000
vt 0.300000 1.000000
vt 0.200000 1.000000
vt 0.800000 1.000000
vt 0.100000 1.000000
vt 0.400000 1.000000
vt 0.700000 1.000000
vt -0.000000 1.000000
vt 0.800000 1.000000
vt 0.900000 1.000000
vt 0.900000 1.000000
vt 0.800000 1.000000
vt 0.200000 1.000000
vt 0.100000 1.000000
vt 0.400000 1.000000
vt 0.700000 1.000000
vt -0.000000 1.000000
vt 0.300000 1.000000
vt 1.000000 1.000000
vt 0.100000 1.000000
vt 0.200000 1.000000
vt 0.200000 1.000000
vt 0.100000 1.000000
vt 0.500000 1.000000
vt 0.400000 1.000000
vt 0.700000 1.000000
vt -0.000000 1.000000
vt 0.300000 1.000000
vt 0.600000 1.000000
vt 1.000000 1.000000
vt 0.400000 1.000000
vt 0.500000 1.000000
vt 0.500000 1.000000
vt 0.400000 1.000000
vt 0.800000 1.000000
vt 0.700000 1.000000
vt -0.000000 1.000000
vt 0.300000 1.000000
vt 0.600000 1.000000
vt 1.000000 1.000000
vt 0.900000 1.000000
vt 0.700000 1.000000
vt 0.800000 1.000000
vt 0.800000 1.000000
vt 0.700000 1.000000
vt 0.100000 1.000000
vt -0.000000 1.000000
vt 0.300000 1.000000
vt 0.600000 1.000000
vt 1.000000 1.000000
vt 0.900000 1.000000
vt 0.200000 1.000000
vt 0.300000 1.000000
vt 0.400000 1.000000
vt 0.400000 1.000000
vt 0.300000 1.000000
vt 0.100000 1.000000
vt -0.000000 1.000000
vt 0.600000 1.000000
vt 1.000000 1.000000
vt 0.900000 1.000000
vt 0.200000 1.000000
vt 0.500000 1.000000
vt 0.600000 1.000000
vt 0.700000 1.000000
vt 0.700000 1.000000
vt 0.600000 1.000000
vt 1.000000 1.000000
vt 0.900000 1.000000
vt 0.200000 1.000000
vt 0.500000 1.000000
vt 0.800000 1.000000
vt 0.100000 1.000000
vt -0.000000 1.000000
vt 0.391068 0.444164
vt 0.250000 0.490000
vt 0.108932 0.444164
vt 0.021746 0.324164
vt 0.021746 0.175836
vt 0.108932 0.055836
vt 0.250000 0.010000
vt 0.391068 0.055836
vt 0.478254 0.175836
vt 0.478254 0.324164
vt 1.000000 1.000000
vt 0.900000 1.000000
vt 0.300000 1.000000
vt 0.200000 1.000000
vt 0.500000 1.000000
vt 0.800000 1.000000
vt 0.100000 1.000000
vt 0.400000 1.000000
vt -0.000000 1.000000
vn 0.3090 0.0000 -0.9511
vn 0.8090 0.0000 -0.5878
vn 1.0000 0.0000 0.0000
vn 0.8090 0.0000 0.5878
vn 0.3090 0.0000 0.9511
vn -0.3090 0.0000 0.9511
vn -0.8090 0.0000 0.5878
vn -1.0000 0.0000 0.0000
vn -0.2267 0.9599 0.1647
vn -0.8090 0.0000 -0.5878
vn -0.3090 0.0000 -0.9511
vn 0.0000 -1.0000 0.0000
vn -0.9843 0.1766 0.0000
vn -0.0866 0.9599 0.2665
vn 0.0866 0.9599 0.2665
vn 0.2267 0.9599 0.1647
vn 0.0866 0.9599 -0.2665
vn 0.2802 0.9599 0.0000
vn 0.2267 0.9599 -0.1647
vn -0.0866 0.9599 -0.2665
vn -0.2267 0.9599 -0.1647
vn -0.2802 0.9599 0.0000
vn 0.2608 -0.5365 0.8026
vn 0.3042 0.1766 0.9361
vn 0.7963 0.1766 -0.5785
vn -0.7963 0.1766 -0.5785
vn -0.3042 0.1766 0.9361
vn 0.9843 0.1766 0.0000
vn -0.3042 0.1766 -0.9361
vn -0.7963 0.1766 0.5785
vn 0.7963 0.1766 0.5785
vn 0.3042 0.1766 -0.9361
vn 0.6827 -0.5365 -0.4960
vn -0.6827 -0.5365 -0.4960
vn -0.2608 -0.5365 0.8026
vn 0.8439 -0.5365 0.0000
vn -0.2608 -0.5365 -0.8026
vn -0.6827 -0.5365 0.4960
vn 0.6827 -0.5365 0.4960
vn 0.2608 -0.5365 -0.8026
vn -0.8439 -0.5365 0.0000
vn -0.2117 0.7284 0.6516
vn 0.6964 0.7176 0.0000
vn 0.6851 0.7284 0.0000
vn -0.2117 0.7284 -0.6516
vn -0.5543 0.7284 0.4027
vn 0.5543 0.7284 0.4027
vn 0.2117 0.7284 -0.6516
vn -0.6851 0.7284 0.0000
vn 0.2117 0.7284 0.6516
vn 0.5543 0.7284 -0.4027
vn -0.5543 0.7284 -0.4027
vn -0.3090 0.0147 -0.9510
vn -0.2152 0.7176 -0.6623
vn -0.5634 0.7176 0.4093
vn 0.5634 0.7176 0.4093
vn 0.2152 0.7176 -0.6623
vn -0.6964 0.7176 0.0000
vn 0.2152 0.7176 0.6623
vn 0.5634 0.7176 -0.4093
vn -0.5634 0.7176 -0.4093
vn -0.2152 0.7176 0.6623
vn -0.6142 -0.6509 0.4462
vn -0.8089 0.0147 0.5877
vn 0.8089 0.0147 0.5877
vn 0.3090 0.0147 -0.9510
vn -0.9999 0.0147 0.0000
vn 0.3090 0.0147 0.9510
vn 0.8089 0.0147 -0.5877
vn -0.8089 0.0147 -0.5877
vn -0.3090 0.0147 0.9510
vn 0.9999 0.0147 0.0000
vn 0.6142 -0.6509 0.4462
vn 0.2346 -0.6509 -0.7220
vn -0.7592 -0.6509 0.0000
vn 0.2346 -0.6509 0.7220
vn 0.6142 -0.6509 -0.4462
vn -0.6142 -0.6509 -0.4462
vn -0.2346 -0.6509 0.7220
vn 0.7592 -0.6509 0.0000
vn -0.2346 -0.6509 -0.7220
vn 0.1600 0.8554 -0.4925
vn 0.3071 0.1115 0.9451
vn -0.5179 0.8554 0.0000
vn 0.1600 0.8554 0.4925
vn 0.4190 0.8554 -0.3044
vn -0.4190 0.8554 -0.3044
vn -0.1600 0.8554 0.4925
vn 0.5179 0.8554 0.0000
vn -0.1600 0.8554 -0.4925
vn -0.4190 0.8554 0.3044
vn 0.4190 0.8554 0.3044
vn 0.1818 -0.9744 -0.1321
vn 0.8040 0.1115 -0.5841
vn -0.8040 0.1115 -0.5841
vn -0.3071 0.1115 0.9451
vn 0.9938 0.1115 0.0000
vn -0.3071 0.1115 -0.9451
vn -0.8040 0.1115 0.5841
vn 0.8040 0.1115 0.5841
vn 0.3071 0.1115 -0.9451
vn -0.9938 0.1115 0.0000
vn -0.1818 -0.9744 -0.1321
vn -0.0695 -0.9744 0.2137
vn 0.2247 -0.9744 0.0000
vn -0.0695 -0.9744 -0.2137
vn -0.1818 -0.9744 0.1321
vn 0.1818 -0.9744 0.1321
vn 0.0695 -0.9744 -0.2137
vn -0.2247 -0.9744 0.0000
vn 0.0695 -0.9744 0.2137
vn 0.1734 0.8279 -0.5334
vn 0.4694 0.8830 0.0000
vn -0.5610 0.8278 0.0000
vn 0.1734 0.8279 0.5334
vn 0.4538 0.8279 -0.3297
vn -0.4539 0.8278 -0.3297
vn -0.1733 0.8278 0.5335
vn 0.5609 0.8279 0.0000
vn -0.1733 0.8278 -0.5335
vn -0.4538 0.8279 0.3296
vn 0.4538 0.8278 0.3297
vn -0.7485 0.3795 0.5438
vn -0.1450 0.8830 -0.4464
vn -0.3797 0.8830 0.2759
vn 0.3797 0.8830 0.2759
vn 0.1450 0.8830 -0.4464
vn -0.4694 0.8830 0.0000
vn 0.1450 0.8830 0.4464
vn 0.3797 0.8830 -0.2759
vn -0.3797 0.8830 -0.2759
vn -0.1450 0.8830 0.4464
vn 0.5541 0.7287 0.4026
vn 0.7485 0.3795 0.5438
vn 0.2859 0.3795 -0.8799
vn -0.9252 0.3795 0.0000
vn 0.2859 0.3795 0.8799
vn 0.7485 0.3795 -0.5438
vn -0.7485 0.3795 -0.5438
vn -0.2859 0.3795 0.8799
vn 0.9252 0.3795 0.0000
vn -0.2859 0.3795 -0.8799
vn 0.0000 1.0000 0.0000
vn 0.2116 0.7287 -0.6514
vn -0.6849 0.7287 0.0000
vn 0.2116 0.7287 0.6514
vn 0.5541 0.7287 -0.4026
vn -0.5541 0.7287 -0.4026
vn -0.2116 0.7287 0.6514
vn 0.6849 0.7287 0.0000
vn -0.2116 0.7287 -0.6514
vn -0.5541 0.7287 0.4026
usemtl Material.002
s off
f 1/1/1 2/2/1 4/3/1 3/4/1
f 3/4/2 4/3/2 6/5/2 5/6/2
f 5/6/3 6/5/3 8/7/3 7/8/3
f 7/8/4 8/7/4 10/9/4 9/10/4
f 9/10/5 10/9/5 12/11/5 11/12/5
f 11/12/6 12/11/6 14/13/6 13/14/6
f 13/14/7 14/13/7 16/15/7 15/16/7
f 15/16/8 16/15/8 18/17/8 17/18/8
f 16/15/9 14/13/9 27/19/9 28/20/9
f 17/18/10 18/17/10 20/21/10 19/22/10
f 19/22/11 20/21/11 2/23/11 1/24/11
f 1/25/12 3/26/12 5/27/12 7/28/12 9/29/12 11/30/12 13/31/12 15/32/12 17/33/12 19/34/12
f 29/35/13 28/20/13 38/36/13 39/37/13
f 14/13/14 12/11/14 26/38/14 27/19/14
f 12/11/15 10/9/15 25/39/15 26/38/15
f 10/9/16 8/7/16 24/40/16 25/39/16
f 4/3/17 2/2/17 22/41/17 21/42/17
f 8/7/18 6/5/18 23/43/18 24/40/18
f 6/5/19 4/3/19 21/42/19 23/43/19
f 2/23/20 20/21/20 30/44/20 22/45/20
f 20/21/21 18/17/21 29/35/21 30/44/21
f 18/17/22 16/15/22 28/20/22 29/35/22
f 36/46/23 35/47/23 45/48/23 46/49/23
f 26/38/24 25/39/24 35/47/24 36/46/24
f 23/43/25 21/42/25 31/50/25 33/51/25
f 30/44/26 29/35/26 39/37/26 40/52/26
f 27/19/27 26/38/27 36/46/27 37/53/27
f 24/40/28 23/43/28 33/51/28 34/54/28
f 22/45/29 30/44/29 40/52/29 32/55/29
f 28/20/30 27/19/30 37/53/30 38/36/30
f 25/39/31 24/40/31 34/54/31 35/47/31
f 21/42/32 22/41/32 32/56/32 31/50/32
f 43/57/2 41/58/2 51/59/2 53/60/2
f 33/51/33 31/50/33 41/58/33 43/57/33
f 40/52/34 39/37/34 49/61/34 50/62/34
f 37/53/35 36/46/35 46/49/35 47/63/35
f 34/54/36 33/51/36 43/57/36 44/64/36
f 32/55/37 40/52/37 50/62/37 42/65/37
f 38/36/38 37/53/38 47/63/38 48/66/38
f 35/47/39 34/54/39 44/64/39 45/48/39
f 31/50/40 32/56/40 42/67/40 41/58/40
f 39/37/41 38/36/41 48/66/41 49/61/41
f 57/68/42 56/69/42 66/70/42 67/71/42
f 50/62/10 49/61/10 59/72/10 60/73/10
f 47/63/6 46/49/6 56/69/6 57/68/6
f 44/64/3 43/57/3 53/60/3 54/74/3
f 42/65/11 50/62/11 60/73/11 52/75/11
f 48/66/7 47/63/7 57/68/7 58/76/7
f 45/48/4 44/64/4 54/74/4 55/77/4
f 41/58/1 42/67/1 52/78/1 51/59/1
f 49/61/8 48/66/8 58/76/8 59/72/8
f 46/49/5 45/48/5 55/77/5 56/69/5
f 64/79/43 63/80/43 73/81/43 74/82/43
f 54/74/44 53/60/44 63/80/44 64/79/44
f 52/75/45 60/73/45 70/83/45 62/84/45
f 58/76/46 57/68/46 67/71/46 68/85/46
f 55/77/47 54/74/47 64/79/47 65/86/47
f 51/59/48 52/78/48 62/87/48 61/88/48
f 59/72/49 58/76/49 68/85/49 69/89/49
f 56/69/50 55/77/50 65/86/50 66/70/50
f 53/60/51 51/59/51 61/88/51 63/80/51
f 60/73/52 59/72/52 69/89/52 70/83/52
f 72/90/53 80/91/53 90/92/53 82/93/53
f 62/84/54 70/83/54 80/91/54 72/90/54
f 68/85/55 67/71/55 77/94/55 78/95/55
f 65/86/56 64/79/56 74/82/56 75/96/56
f 61/88/57 62/87/57 72/97/57 71/98/57
f 69/89/58 68/85/58 78/95/58 79/99/58
f 66/70/59 65/86/59 75/96/59 76/100/59
f 63/80/60 61/88/60 71/98/60 73/81/60
f 70/83/61 69/89/61 79/99/61 80/91/61
f 67/71/62 66/70/62 76/100/62 77/94/62
f 88/101/63 87/102/63 97/103/63 98/104/63
f 78/95/64 77/94/64 87/102/64 88/101/64
f 75/96/65 74/82/65 84/105/65 85/106/65
f 71/98/66 72/97/66 82/107/66 81/108/66
f 79/99/67 78/95/67 88/101/67 89/109/67
f 76/100/68 75/96/68 85/106/68 86/110/68
f 73/81/69 71/98/69 81/108/69 83/111/69
f 80/91/70 79/99/70 89/109/70 90/92/70
f 77/94/71 76/100/71 86/110/71 87/102/71
f 74/82/72 73/81/72 83/111/72 84/105/72
f 95/112/4 94/113/4 104/114/4 105/115/4
f 85/106/73 84/105/73 94/113/73 95/112/73
f 81/108/74 82/107/74 92/116/74 91/117/74
f 89/109/75 88/101/75 98/104/75 99/118/75
f 86/110/76 85/106/76 95/112/76 96/119/76
f 83/111/77 81/108/77 91/117/77 93/120/77
f 90/92/78 89/109/78 99/118/78 100/121/78
f 87/102/79 86/110/79 96/119/79 97/103/79
f 84/105/80 83/111/80 93/120/80 94/113/80
f 82/93/81 90/92/81 100/121/81 92/122/81
f 101/123/82 102/124/82 112/125/82 111/126/82
f 91/117/1 92/116/1 102/124/1 101/123/1
f 99/118/8 98/104/8 108/127/8 109/128/8
f 96/119/5 95/112/5 105/115/5 106/129/5
f 93/120/2 91/117/2 101/123/2 103/130/2
f 100/121/10 99/118/10 109/128/10 110/131/10
f 97/103/6 96/119/6 106/129/6 107/132/6
f 94/113/3 93/120/3 103/130/3 104/114/3
f 92/122/11 100/121/11 110/131/11 102/133/11
f 98/104/7 97/103/7 107/132/7 108/127/7
f 116/134/83 115/135/83 125/136/83 126/137/83
f 109/128/84 108/127/84 118/138/84 119/139/84
f 106/129/85 105/115/85 115/135/85 116/134/85
f 103/130/86 101/123/86 111/126/86 113/140/86
f 110/131/87 109/128/87 119/139/87 120/141/87
f 107/132/88 106/129/88 116/134/88 117/142/88
f 104/114/89 103/130/89 113/140/89 114/143/89
f 102/133/90 110/131/90 120/141/90 112/144/90
f 108/127/91 107/132/91 117/142/91 118/138/91
f 105/115/92 104/114/92 114/143/92 115/135/92
f 123/145/93 121/146/93 131/147/93 133/148/93
f 113/140/94 111/126/94 121/146/94 123/145/94
f 120/141/95 119/139/95 129/149/95 130/150/95
f 117/142/96 116/134/96 126/137/96 127/151/96
f 114/143/97 113/140/97 123/145/97 124/152/97
f 112/144/98 120/141/98 130/150/98 122/153/98
f 118/138/99 117/142/99 127/151/99 128/154/99
f 115/135/100 114/143/100 124/152/100 125/136/100
f 111/126/101 112/125/101 122/155/101 121/146/101
f 119/139/102 118/138/102 128/154/102 129/149/102
f 140/156/10 139/157/10 149/158/10 150/159/10
f 130/150/103 129/149/103 139/157/103 140/156/103
f 127/151/104 126/137/104 136/160/104 137/161/104
f 124/152/105 123/145/105 133/148/105 134/162/105
f 122/153/106 130/150/106 140/156/106 132/163/106
f 128/154/107 127/151/107 137/161/107 138/164/107
f 125/136/108 124/152/108 134/162/108 135/165/108
f 121/146/109 122/155/109 132/166/109 131/147/109
f 129/149/110 128/154/110 138/164/110 139/157/110
f 126/137/111 125/136/111 135/165/111 136/160/111
f 147/167/112 146/168/112 156/169/112 157/170/112
f 137/161/6 136/160/6 146/168/6 147/167/6
f 134/162/3 133/148/3 143/171/3 144/172/3
f 132/163/11 140/156/11 150/159/11 142/173/11
f 138/164/7 137/161/7 147/167/7 148/174/7
f 135/165/4 134/162/4 144/172/4 145/175/4
f 131/147/1 132/166/1 142/176/1 141/177/1
f 139/157/8 138/164/8 148/174/8 149/158/8
f 136/160/5 135/165/5 145/175/5 146/168/5
f 133/148/2 131/147/2 141/177/2 143/171/2
f 154/178/113 153/179/113 163/180/113 164/181/113
f 144/172/114 143/171/114 153/179/114 154/178/114
f 142/173/115 150/159/115 160/182/115 152/183/115
f 148/174/116 147/167/116 157/170/116 158/184/116
f 145/175/117 144/172/117 154/178/117 155/185/117
f 141/177/118 142/176/118 152/186/118 151/187/118
f 149/158/119 148/174/119 158/184/119 159/188/119
f 146/168/120 145/175/120 155/185/120 156/169/120
f 143/171/121 141/177/121 151/187/121 153/179/121
f 150/159/122 149/158/122 159/188/122 160/182/122
f 168/189/123 167/190/123 177/191/123 178/192/123
f 152/183/124 160/182/124 170/193/124 162/194/124
f 158/184/125 157/170/125 167/190/125 168/189/125
f 155/185/126 154/178/126 164/181/126 165/195/126
f 151/187/127 152/186/127 162/196/127 161/197/127
f 159/188/128 158/184/128 168/189/128 169/198/128
f 156/169/129 155/185/129 165/195/129 166/199/129
f 153/179/130 151/187/130 161/197/130 163/180/130
f 160/182/131 159/188/131 169/198/131 170/193/131
f 157/170/132 156/169/132 166/199/132 167/190/132
f 175/200/133 174/201/133 184/202/133 185/203/133
f 165/195/134 164/181/134 174/201/134 175/200/134
f 161/197/135 162/196/135 172/204/135 171/205/135
f 169/198/136 168/189/136 178/192/136 179/206/136
f 166/199/137 165/195/137 175/200/137 176/207/137
f 163/180/138 161/197/138 171/205/138 173/208/138
f 170/193/139 169/198/139 179/206/139 180/209/139
f 167/190/140 166/199/140 176/207/140 177/191/140
f 164/181/141 163/180/141 173/208/141 174/201/141
f 162/194/142 170/193/142 180/209/142 172/210/142
f 181/211/143 182/212/143 190/213/143 189/214/143 188/215/143 187/216/143 186/217/143 185/218/143 184/219/143 183/220/143
f 171/205/144 172/204/144 182/221/144 181/222/144
f 179/206/145 178/192/145 188/223/145 189/224/145
f 176/207/146 175/200/146 185/203/146 186/225/146
f 173/208/147 171/205/147 181/222/147 183/226/147
f 180/209/148 179/206/148 189/224/148 190/227/148
f 177/191/149 176/207/149 186/225/149 187/228/149
f 174/201/150 173/208/150 183/226/150 184/202/150
f 172/210/151 180/209/151 190/227/151 182/229/151
f 178/192/152 177/191/152 187/228/152 188/223/152
